<mxfile host="app.diagrams.net" agent="Mozilla/5.0 (Windows NT 10.0; Win64; x64) AppleWebKit/537.36 (KHTML, like Gecko) Chrome/141.0.0.0 Safari/537.36" version="28.2.5">
  <diagram name="Page-1" id="maHT4FSvqRylTbP68qsX">
    <mxGraphModel grid="1" page="1" gridSize="10" guides="1" tooltips="1" connect="1" arrows="1" fold="1" pageScale="1" pageWidth="850" pageHeight="1100" math="0" shadow="0">
      <root>
        <mxCell id="0" />
        <mxCell id="1" parent="0" />
        <mxCell id="I-i70V5M9BXq4tLb4b1U-3" value="" style="edgeStyle=orthogonalEdgeStyle;rounded=0;orthogonalLoop=1;jettySize=auto;html=1;" edge="1" parent="1" source="I-i70V5M9BXq4tLb4b1U-1" target="I-i70V5M9BXq4tLb4b1U-2">
          <mxGeometry relative="1" as="geometry" />
        </mxCell>
        <mxCell id="I-i70V5M9BXq4tLb4b1U-1" value="start" style="ellipse;whiteSpace=wrap;html=1;" vertex="1" parent="1">
          <mxGeometry x="305" y="40" width="120" height="80" as="geometry" />
        </mxCell>
        <mxCell id="I-i70V5M9BXq4tLb4b1U-6" value="" style="edgeStyle=orthogonalEdgeStyle;rounded=0;orthogonalLoop=1;jettySize=auto;html=1;" edge="1" parent="1" source="I-i70V5M9BXq4tLb4b1U-2" target="I-i70V5M9BXq4tLb4b1U-5">
          <mxGeometry relative="1" as="geometry" />
        </mxCell>
        <mxCell id="I-i70V5M9BXq4tLb4b1U-2" value="input&lt;div&gt;nama &amp;amp; nim&lt;/div&gt;" style="shape=parallelogram;perimeter=parallelogramPerimeter;whiteSpace=wrap;html=1;fixedSize=1;" vertex="1" parent="1">
          <mxGeometry x="305" y="160" width="120" height="60" as="geometry" />
        </mxCell>
        <mxCell id="I-i70V5M9BXq4tLb4b1U-4" value="" style="endArrow=classic;html=1;rounded=0;entryX=0;entryY=0;entryDx=0;entryDy=0;" edge="1" parent="1" target="I-i70V5M9BXq4tLb4b1U-2">
          <mxGeometry width="50" height="50" relative="1" as="geometry">
            <mxPoint x="280" y="169" as="sourcePoint" />
            <mxPoint x="410" y="240" as="targetPoint" />
          </mxGeometry>
        </mxCell>
        <mxCell id="I-i70V5M9BXq4tLb4b1U-8" value="" style="edgeStyle=orthogonalEdgeStyle;rounded=0;orthogonalLoop=1;jettySize=auto;html=1;" edge="1" parent="1" source="I-i70V5M9BXq4tLb4b1U-5" target="I-i70V5M9BXq4tLb4b1U-7">
          <mxGeometry relative="1" as="geometry" />
        </mxCell>
        <mxCell id="I-i70V5M9BXq4tLb4b1U-23" value="True" style="edgeLabel;html=1;align=center;verticalAlign=middle;resizable=0;points=[];" vertex="1" connectable="0" parent="I-i70V5M9BXq4tLb4b1U-8">
          <mxGeometry x="-0.2223" relative="1" as="geometry">
            <mxPoint as="offset" />
          </mxGeometry>
        </mxCell>
        <mxCell id="I-i70V5M9BXq4tLb4b1U-55" value="" style="edgeStyle=orthogonalEdgeStyle;rounded=0;orthogonalLoop=1;jettySize=auto;html=1;" edge="1" parent="1" source="I-i70V5M9BXq4tLb4b1U-5" target="I-i70V5M9BXq4tLb4b1U-54">
          <mxGeometry relative="1" as="geometry" />
        </mxCell>
        <mxCell id="I-i70V5M9BXq4tLb4b1U-58" value="False" style="edgeLabel;html=1;align=center;verticalAlign=middle;resizable=0;points=[];" vertex="1" connectable="0" parent="I-i70V5M9BXq4tLb4b1U-55">
          <mxGeometry x="-0.1422" y="1" relative="1" as="geometry">
            <mxPoint as="offset" />
          </mxGeometry>
        </mxCell>
        <mxCell id="I-i70V5M9BXq4tLb4b1U-5" value="nama == &quot;pernanda&quot; &amp;amp;&lt;div&gt;&amp;nbsp;nim == 040&lt;/div&gt;" style="rhombus;whiteSpace=wrap;html=1;" vertex="1" parent="1">
          <mxGeometry x="312.5" y="260" width="105" height="100" as="geometry" />
        </mxCell>
        <mxCell id="I-i70V5M9BXq4tLb4b1U-9" style="edgeStyle=orthogonalEdgeStyle;rounded=0;orthogonalLoop=1;jettySize=auto;html=1;exitX=1;exitY=1;exitDx=0;exitDy=0;" edge="1" parent="1" source="I-i70V5M9BXq4tLb4b1U-7">
          <mxGeometry relative="1" as="geometry">
            <mxPoint x="460" y="452" as="targetPoint" />
          </mxGeometry>
        </mxCell>
        <mxCell id="I-i70V5M9BXq4tLb4b1U-13" style="edgeStyle=orthogonalEdgeStyle;rounded=0;orthogonalLoop=1;jettySize=auto;html=1;exitX=0.5;exitY=1;exitDx=0;exitDy=0;entryX=0.5;entryY=0;entryDx=0;entryDy=0;" edge="1" parent="1" source="I-i70V5M9BXq4tLb4b1U-7" target="I-i70V5M9BXq4tLb4b1U-11">
          <mxGeometry relative="1" as="geometry" />
        </mxCell>
        <mxCell id="I-i70V5M9BXq4tLb4b1U-7" value="Output&lt;div&gt;menu langganan streaming musik&lt;/div&gt;" style="shape=parallelogram;perimeter=parallelogramPerimeter;whiteSpace=wrap;html=1;fixedSize=1;" vertex="1" parent="1">
          <mxGeometry x="296.25" y="400" width="137.5" height="60" as="geometry" />
        </mxCell>
        <mxCell id="I-i70V5M9BXq4tLb4b1U-15" value="" style="edgeStyle=orthogonalEdgeStyle;rounded=0;orthogonalLoop=1;jettySize=auto;html=1;" edge="1" parent="1" source="I-i70V5M9BXq4tLb4b1U-11" target="I-i70V5M9BXq4tLb4b1U-14">
          <mxGeometry relative="1" as="geometry" />
        </mxCell>
        <mxCell id="I-i70V5M9BXq4tLb4b1U-11" value="input&lt;div&gt;pilihan&lt;/div&gt;" style="shape=parallelogram;perimeter=parallelogramPerimeter;whiteSpace=wrap;html=1;fixedSize=1;" vertex="1" parent="1">
          <mxGeometry x="305" y="500" width="120" height="60" as="geometry" />
        </mxCell>
        <mxCell id="I-i70V5M9BXq4tLb4b1U-12" value="" style="endArrow=classic;html=1;rounded=0;entryX=0;entryY=0;entryDx=0;entryDy=0;" edge="1" parent="1" target="I-i70V5M9BXq4tLb4b1U-11">
          <mxGeometry width="50" height="50" relative="1" as="geometry">
            <mxPoint x="280" y="509" as="sourcePoint" />
            <mxPoint x="418.75" y="630" as="targetPoint" />
          </mxGeometry>
        </mxCell>
        <mxCell id="I-i70V5M9BXq4tLb4b1U-21" value="" style="edgeStyle=orthogonalEdgeStyle;rounded=0;orthogonalLoop=1;jettySize=auto;html=1;" edge="1" parent="1" source="I-i70V5M9BXq4tLb4b1U-14" target="I-i70V5M9BXq4tLb4b1U-20">
          <mxGeometry relative="1" as="geometry" />
        </mxCell>
        <mxCell id="I-i70V5M9BXq4tLb4b1U-24" value="True" style="edgeLabel;html=1;align=center;verticalAlign=middle;resizable=0;points=[];" vertex="1" connectable="0" parent="I-i70V5M9BXq4tLb4b1U-21">
          <mxGeometry x="-0.1441" y="-1" relative="1" as="geometry">
            <mxPoint y="-1" as="offset" />
          </mxGeometry>
        </mxCell>
        <mxCell id="I-i70V5M9BXq4tLb4b1U-28" value="" style="edgeStyle=orthogonalEdgeStyle;rounded=0;orthogonalLoop=1;jettySize=auto;html=1;" edge="1" parent="1" source="I-i70V5M9BXq4tLb4b1U-14" target="I-i70V5M9BXq4tLb4b1U-27">
          <mxGeometry relative="1" as="geometry" />
        </mxCell>
        <mxCell id="I-i70V5M9BXq4tLb4b1U-59" value="False" style="edgeLabel;html=1;align=center;verticalAlign=middle;resizable=0;points=[];" vertex="1" connectable="0" parent="I-i70V5M9BXq4tLb4b1U-28">
          <mxGeometry x="-0.0821" y="1" relative="1" as="geometry">
            <mxPoint x="-1" as="offset" />
          </mxGeometry>
        </mxCell>
        <mxCell id="I-i70V5M9BXq4tLb4b1U-14" value="pilihan == 1" style="rhombus;whiteSpace=wrap;html=1;" vertex="1" parent="1">
          <mxGeometry x="325" y="600" width="80" height="80" as="geometry" />
        </mxCell>
        <mxCell id="I-i70V5M9BXq4tLb4b1U-22" style="edgeStyle=orthogonalEdgeStyle;rounded=0;orthogonalLoop=1;jettySize=auto;html=1;exitX=1;exitY=1;exitDx=0;exitDy=0;" edge="1" parent="1" source="I-i70V5M9BXq4tLb4b1U-20">
          <mxGeometry relative="1" as="geometry">
            <mxPoint x="450" y="771.8333333333335" as="targetPoint" />
          </mxGeometry>
        </mxCell>
        <mxCell id="I-i70V5M9BXq4tLb4b1U-26" style="edgeStyle=orthogonalEdgeStyle;rounded=0;orthogonalLoop=1;jettySize=auto;html=1;exitX=0.5;exitY=1;exitDx=0;exitDy=0;entryX=0.5;entryY=0;entryDx=0;entryDy=0;" edge="1" parent="1" source="I-i70V5M9BXq4tLb4b1U-20" target="I-i70V5M9BXq4tLb4b1U-25">
          <mxGeometry relative="1" as="geometry" />
        </mxCell>
        <mxCell id="I-i70V5M9BXq4tLb4b1U-20" value="Output&lt;div&gt;Harga &amp;amp; benefit&amp;nbsp;&lt;/div&gt;&lt;div&gt;paket bronze&lt;/div&gt;" style="shape=parallelogram;perimeter=parallelogramPerimeter;whiteSpace=wrap;html=1;fixedSize=1;" vertex="1" parent="1">
          <mxGeometry x="305" y="720" width="120" height="60" as="geometry" />
        </mxCell>
        <mxCell id="I-i70V5M9BXq4tLb4b1U-25" value="End" style="ellipse;whiteSpace=wrap;html=1;" vertex="1" parent="1">
          <mxGeometry x="305" y="890" width="120" height="80" as="geometry" />
        </mxCell>
        <mxCell id="I-i70V5M9BXq4tLb4b1U-30" value="" style="edgeStyle=orthogonalEdgeStyle;rounded=0;orthogonalLoop=1;jettySize=auto;html=1;" edge="1" parent="1" source="I-i70V5M9BXq4tLb4b1U-27" target="I-i70V5M9BXq4tLb4b1U-29">
          <mxGeometry relative="1" as="geometry" />
        </mxCell>
        <mxCell id="I-i70V5M9BXq4tLb4b1U-61" value="True" style="edgeLabel;html=1;align=center;verticalAlign=middle;resizable=0;points=[];" vertex="1" connectable="0" parent="I-i70V5M9BXq4tLb4b1U-30">
          <mxGeometry x="-0.1429" y="-1" relative="1" as="geometry">
            <mxPoint as="offset" />
          </mxGeometry>
        </mxCell>
        <mxCell id="I-i70V5M9BXq4tLb4b1U-33" value="" style="edgeStyle=orthogonalEdgeStyle;rounded=0;orthogonalLoop=1;jettySize=auto;html=1;" edge="1" parent="1" source="I-i70V5M9BXq4tLb4b1U-27" target="I-i70V5M9BXq4tLb4b1U-32">
          <mxGeometry relative="1" as="geometry" />
        </mxCell>
        <mxCell id="I-i70V5M9BXq4tLb4b1U-60" value="False" style="edgeLabel;html=1;align=center;verticalAlign=middle;resizable=0;points=[];" vertex="1" connectable="0" parent="I-i70V5M9BXq4tLb4b1U-33">
          <mxGeometry x="0.0007" y="4" relative="1" as="geometry">
            <mxPoint as="offset" />
          </mxGeometry>
        </mxCell>
        <mxCell id="I-i70V5M9BXq4tLb4b1U-27" value="pilihan == 2" style="rhombus;whiteSpace=wrap;html=1;" vertex="1" parent="1">
          <mxGeometry x="500" y="600" width="80" height="80" as="geometry" />
        </mxCell>
        <mxCell id="I-i70V5M9BXq4tLb4b1U-31" style="edgeStyle=orthogonalEdgeStyle;rounded=0;orthogonalLoop=1;jettySize=auto;html=1;exitX=1;exitY=1;exitDx=0;exitDy=0;" edge="1" parent="1" source="I-i70V5M9BXq4tLb4b1U-29">
          <mxGeometry relative="1" as="geometry">
            <mxPoint x="619.9999999999998" y="771.4705882352941" as="targetPoint" />
          </mxGeometry>
        </mxCell>
        <mxCell id="I-i70V5M9BXq4tLb4b1U-48" style="edgeStyle=orthogonalEdgeStyle;rounded=0;orthogonalLoop=1;jettySize=auto;html=1;exitX=0.5;exitY=1;exitDx=0;exitDy=0;entryX=0.5;entryY=0;entryDx=0;entryDy=0;" edge="1" parent="1" source="I-i70V5M9BXq4tLb4b1U-29" target="I-i70V5M9BXq4tLb4b1U-25">
          <mxGeometry relative="1" as="geometry">
            <Array as="points">
              <mxPoint x="540" y="840" />
              <mxPoint x="365" y="840" />
            </Array>
          </mxGeometry>
        </mxCell>
        <mxCell id="I-i70V5M9BXq4tLb4b1U-29" value="Output&lt;div&gt;Harga &amp;amp; benefit&lt;/div&gt;&lt;div&gt;paket silver&lt;/div&gt;" style="shape=parallelogram;perimeter=parallelogramPerimeter;whiteSpace=wrap;html=1;fixedSize=1;" vertex="1" parent="1">
          <mxGeometry x="480" y="720" width="120" height="60" as="geometry" />
        </mxCell>
        <mxCell id="I-i70V5M9BXq4tLb4b1U-35" value="" style="edgeStyle=orthogonalEdgeStyle;rounded=0;orthogonalLoop=1;jettySize=auto;html=1;" edge="1" parent="1" source="I-i70V5M9BXq4tLb4b1U-32" target="I-i70V5M9BXq4tLb4b1U-34">
          <mxGeometry relative="1" as="geometry" />
        </mxCell>
        <mxCell id="I-i70V5M9BXq4tLb4b1U-62" value="True" style="edgeLabel;html=1;align=center;verticalAlign=middle;resizable=0;points=[];" vertex="1" connectable="0" parent="I-i70V5M9BXq4tLb4b1U-35">
          <mxGeometry x="-0.1429" y="1" relative="1" as="geometry">
            <mxPoint as="offset" />
          </mxGeometry>
        </mxCell>
        <mxCell id="I-i70V5M9BXq4tLb4b1U-38" value="" style="edgeStyle=orthogonalEdgeStyle;rounded=0;orthogonalLoop=1;jettySize=auto;html=1;" edge="1" parent="1" source="I-i70V5M9BXq4tLb4b1U-32" target="I-i70V5M9BXq4tLb4b1U-37">
          <mxGeometry relative="1" as="geometry" />
        </mxCell>
        <mxCell id="I-i70V5M9BXq4tLb4b1U-63" value="False" style="edgeLabel;html=1;align=center;verticalAlign=middle;resizable=0;points=[];" vertex="1" connectable="0" parent="I-i70V5M9BXq4tLb4b1U-38">
          <mxGeometry x="-0.0604" y="6" relative="1" as="geometry">
            <mxPoint as="offset" />
          </mxGeometry>
        </mxCell>
        <mxCell id="I-i70V5M9BXq4tLb4b1U-32" value="pilihan == 3" style="rhombus;whiteSpace=wrap;html=1;" vertex="1" parent="1">
          <mxGeometry x="660" y="600" width="80" height="80" as="geometry" />
        </mxCell>
        <mxCell id="I-i70V5M9BXq4tLb4b1U-36" style="edgeStyle=orthogonalEdgeStyle;rounded=0;orthogonalLoop=1;jettySize=auto;html=1;exitX=1;exitY=1;exitDx=0;exitDy=0;" edge="1" parent="1" source="I-i70V5M9BXq4tLb4b1U-34">
          <mxGeometry relative="1" as="geometry">
            <mxPoint x="779.9999999999998" y="771.4705882352941" as="targetPoint" />
          </mxGeometry>
        </mxCell>
        <mxCell id="I-i70V5M9BXq4tLb4b1U-49" style="edgeStyle=orthogonalEdgeStyle;rounded=0;orthogonalLoop=1;jettySize=auto;html=1;exitX=0.5;exitY=1;exitDx=0;exitDy=0;entryX=0.5;entryY=0;entryDx=0;entryDy=0;" edge="1" parent="1" source="I-i70V5M9BXq4tLb4b1U-34" target="I-i70V5M9BXq4tLb4b1U-25">
          <mxGeometry relative="1" as="geometry">
            <Array as="points">
              <mxPoint x="700" y="840" />
              <mxPoint x="365" y="840" />
            </Array>
          </mxGeometry>
        </mxCell>
        <mxCell id="I-i70V5M9BXq4tLb4b1U-34" value="Output&lt;div&gt;harga &amp;amp; benefit&lt;/div&gt;&lt;div&gt;paket gold&lt;/div&gt;" style="shape=parallelogram;perimeter=parallelogramPerimeter;whiteSpace=wrap;html=1;fixedSize=1;" vertex="1" parent="1">
          <mxGeometry x="640" y="720" width="120" height="60" as="geometry" />
        </mxCell>
        <mxCell id="I-i70V5M9BXq4tLb4b1U-44" value="" style="edgeStyle=orthogonalEdgeStyle;rounded=0;orthogonalLoop=1;jettySize=auto;html=1;" edge="1" parent="1" source="I-i70V5M9BXq4tLb4b1U-37" target="I-i70V5M9BXq4tLb4b1U-43">
          <mxGeometry relative="1" as="geometry" />
        </mxCell>
        <mxCell id="I-i70V5M9BXq4tLb4b1U-65" value="True" style="edgeLabel;html=1;align=center;verticalAlign=middle;resizable=0;points=[];" vertex="1" connectable="0" parent="I-i70V5M9BXq4tLb4b1U-44">
          <mxGeometry x="-0.0714" y="-1" relative="1" as="geometry">
            <mxPoint as="offset" />
          </mxGeometry>
        </mxCell>
        <mxCell id="I-i70V5M9BXq4tLb4b1U-46" value="" style="edgeStyle=orthogonalEdgeStyle;rounded=0;orthogonalLoop=1;jettySize=auto;html=1;" edge="1" parent="1" source="I-i70V5M9BXq4tLb4b1U-37" target="I-i70V5M9BXq4tLb4b1U-45">
          <mxGeometry relative="1" as="geometry" />
        </mxCell>
        <mxCell id="I-i70V5M9BXq4tLb4b1U-64" value="False" style="edgeLabel;html=1;align=center;verticalAlign=middle;resizable=0;points=[];" vertex="1" connectable="0" parent="I-i70V5M9BXq4tLb4b1U-46">
          <mxGeometry x="-0.028" y="1" relative="1" as="geometry">
            <mxPoint as="offset" />
          </mxGeometry>
        </mxCell>
        <mxCell id="I-i70V5M9BXq4tLb4b1U-37" value="pilihan == 4" style="rhombus;whiteSpace=wrap;html=1;" vertex="1" parent="1">
          <mxGeometry x="810" y="600" width="80" height="80" as="geometry" />
        </mxCell>
        <mxCell id="I-i70V5M9BXq4tLb4b1U-50" style="edgeStyle=orthogonalEdgeStyle;rounded=0;orthogonalLoop=1;jettySize=auto;html=1;exitX=0.5;exitY=1;exitDx=0;exitDy=0;entryX=0.5;entryY=0;entryDx=0;entryDy=0;" edge="1" parent="1" source="I-i70V5M9BXq4tLb4b1U-43" target="I-i70V5M9BXq4tLb4b1U-25">
          <mxGeometry relative="1" as="geometry">
            <Array as="points">
              <mxPoint x="850" y="840" />
              <mxPoint x="365" y="840" />
            </Array>
          </mxGeometry>
        </mxCell>
        <mxCell id="I-i70V5M9BXq4tLb4b1U-43" value="Output&amp;nbsp;&lt;div&gt;harga &amp;amp; benefit&lt;/div&gt;&lt;div&gt;paket platinum&lt;/div&gt;" style="shape=parallelogram;perimeter=parallelogramPerimeter;whiteSpace=wrap;html=1;fixedSize=1;" vertex="1" parent="1">
          <mxGeometry x="790" y="720" width="120" height="60" as="geometry" />
        </mxCell>
        <mxCell id="I-i70V5M9BXq4tLb4b1U-47" style="edgeStyle=orthogonalEdgeStyle;rounded=0;orthogonalLoop=1;jettySize=auto;html=1;exitX=1;exitY=1;exitDx=0;exitDy=0;" edge="1" parent="1" source="I-i70V5M9BXq4tLb4b1U-45">
          <mxGeometry relative="1" as="geometry">
            <mxPoint x="1150" y="662.0588235294117" as="targetPoint" />
          </mxGeometry>
        </mxCell>
        <mxCell id="I-i70V5M9BXq4tLb4b1U-52" style="edgeStyle=orthogonalEdgeStyle;rounded=0;orthogonalLoop=1;jettySize=auto;html=1;exitX=0.5;exitY=1;exitDx=0;exitDy=0;entryX=0.5;entryY=0;entryDx=0;entryDy=0;" edge="1" parent="1" source="I-i70V5M9BXq4tLb4b1U-45" target="I-i70V5M9BXq4tLb4b1U-25">
          <mxGeometry relative="1" as="geometry">
            <Array as="points">
              <mxPoint x="1045" y="840" />
              <mxPoint x="365" y="840" />
            </Array>
          </mxGeometry>
        </mxCell>
        <mxCell id="I-i70V5M9BXq4tLb4b1U-45" value="Output&lt;div&gt;Pilihan tidak valid&lt;/div&gt;" style="shape=parallelogram;perimeter=parallelogramPerimeter;whiteSpace=wrap;html=1;fixedSize=1;" vertex="1" parent="1">
          <mxGeometry x="980" y="610" width="130" height="60" as="geometry" />
        </mxCell>
        <mxCell id="I-i70V5M9BXq4tLb4b1U-56" style="edgeStyle=orthogonalEdgeStyle;rounded=0;orthogonalLoop=1;jettySize=auto;html=1;exitX=1;exitY=1;exitDx=0;exitDy=0;" edge="1" parent="1" source="I-i70V5M9BXq4tLb4b1U-54">
          <mxGeometry relative="1" as="geometry">
            <mxPoint x="639.9999999999998" y="331.42857142857156" as="targetPoint" />
          </mxGeometry>
        </mxCell>
        <mxCell id="I-i70V5M9BXq4tLb4b1U-57" style="edgeStyle=orthogonalEdgeStyle;rounded=0;orthogonalLoop=1;jettySize=auto;html=1;exitX=1;exitY=0.5;exitDx=0;exitDy=0;entryX=0.5;entryY=0;entryDx=0;entryDy=0;" edge="1" parent="1" source="I-i70V5M9BXq4tLb4b1U-54" target="I-i70V5M9BXq4tLb4b1U-25">
          <mxGeometry relative="1" as="geometry">
            <Array as="points">
              <mxPoint x="1200" y="310" />
              <mxPoint x="1200" y="840" />
              <mxPoint x="365" y="840" />
            </Array>
          </mxGeometry>
        </mxCell>
        <mxCell id="I-i70V5M9BXq4tLb4b1U-54" value="Output&lt;div&gt;nama/nim&amp;nbsp;&lt;/div&gt;&lt;div&gt;tidak sesuai&lt;/div&gt;" style="shape=parallelogram;perimeter=parallelogramPerimeter;whiteSpace=wrap;html=1;fixedSize=1;" vertex="1" parent="1">
          <mxGeometry x="490" y="280" width="120" height="60" as="geometry" />
        </mxCell>
        <mxCell id="JvaA8ZOsktSTNldXVIe7-59" value="" style="edgeStyle=orthogonalEdgeStyle;rounded=0;orthogonalLoop=1;jettySize=auto;html=1;" edge="1" parent="1" source="JvaA8ZOsktSTNldXVIe7-2" target="JvaA8ZOsktSTNldXVIe7-58">
          <mxGeometry relative="1" as="geometry" />
        </mxCell>
        <mxCell id="JvaA8ZOsktSTNldXVIe7-2" value="start" style="ellipse;whiteSpace=wrap;html=1;" vertex="1" parent="1">
          <mxGeometry x="1625" width="120" height="80" as="geometry" />
        </mxCell>
        <mxCell id="JvaA8ZOsktSTNldXVIe7-3" value="" style="edgeStyle=orthogonalEdgeStyle;rounded=0;orthogonalLoop=1;jettySize=auto;html=1;" edge="1" parent="1" source="JvaA8ZOsktSTNldXVIe7-4" target="JvaA8ZOsktSTNldXVIe7-10">
          <mxGeometry relative="1" as="geometry" />
        </mxCell>
        <mxCell id="JvaA8ZOsktSTNldXVIe7-4" value="input&lt;div&gt;nama &amp;amp; nim&lt;/div&gt;" style="shape=parallelogram;perimeter=parallelogramPerimeter;whiteSpace=wrap;html=1;fixedSize=1;" vertex="1" parent="1">
          <mxGeometry x="1625" y="230" width="120" height="60" as="geometry" />
        </mxCell>
        <mxCell id="JvaA8ZOsktSTNldXVIe7-5" value="" style="endArrow=classic;html=1;rounded=0;entryX=0;entryY=0;entryDx=0;entryDy=0;" edge="1" parent="1" target="JvaA8ZOsktSTNldXVIe7-4">
          <mxGeometry width="50" height="50" relative="1" as="geometry">
            <mxPoint x="1600" y="239" as="sourcePoint" />
            <mxPoint x="1730" y="310" as="targetPoint" />
          </mxGeometry>
        </mxCell>
        <mxCell id="JvaA8ZOsktSTNldXVIe7-6" value="" style="edgeStyle=orthogonalEdgeStyle;rounded=0;orthogonalLoop=1;jettySize=auto;html=1;" edge="1" parent="1" source="JvaA8ZOsktSTNldXVIe7-10" target="JvaA8ZOsktSTNldXVIe7-13">
          <mxGeometry relative="1" as="geometry" />
        </mxCell>
        <mxCell id="JvaA8ZOsktSTNldXVIe7-7" value="True" style="edgeLabel;html=1;align=center;verticalAlign=middle;resizable=0;points=[];" connectable="0" vertex="1" parent="JvaA8ZOsktSTNldXVIe7-6">
          <mxGeometry x="-0.2223" relative="1" as="geometry">
            <mxPoint as="offset" />
          </mxGeometry>
        </mxCell>
        <mxCell id="JvaA8ZOsktSTNldXVIe7-8" value="" style="edgeStyle=orthogonalEdgeStyle;rounded=0;orthogonalLoop=1;jettySize=auto;html=1;" edge="1" parent="1" source="JvaA8ZOsktSTNldXVIe7-10" target="JvaA8ZOsktSTNldXVIe7-54">
          <mxGeometry relative="1" as="geometry" />
        </mxCell>
        <mxCell id="JvaA8ZOsktSTNldXVIe7-9" value="False" style="edgeLabel;html=1;align=center;verticalAlign=middle;resizable=0;points=[];" connectable="0" vertex="1" parent="JvaA8ZOsktSTNldXVIe7-8">
          <mxGeometry x="-0.1422" y="1" relative="1" as="geometry">
            <mxPoint as="offset" />
          </mxGeometry>
        </mxCell>
        <mxCell id="JvaA8ZOsktSTNldXVIe7-10" value="nama == &quot;pernanda&quot; &amp;amp;&lt;div&gt;&amp;nbsp;nim == 040&lt;/div&gt;" style="rhombus;whiteSpace=wrap;html=1;" vertex="1" parent="1">
          <mxGeometry x="1632.5" y="330" width="105" height="100" as="geometry" />
        </mxCell>
        <mxCell id="JvaA8ZOsktSTNldXVIe7-11" style="edgeStyle=orthogonalEdgeStyle;rounded=0;orthogonalLoop=1;jettySize=auto;html=1;exitX=1;exitY=1;exitDx=0;exitDy=0;" edge="1" parent="1" source="JvaA8ZOsktSTNldXVIe7-13">
          <mxGeometry relative="1" as="geometry">
            <mxPoint x="1780" y="522" as="targetPoint" />
          </mxGeometry>
        </mxCell>
        <mxCell id="JvaA8ZOsktSTNldXVIe7-12" style="edgeStyle=orthogonalEdgeStyle;rounded=0;orthogonalLoop=1;jettySize=auto;html=1;exitX=0.5;exitY=1;exitDx=0;exitDy=0;entryX=0.5;entryY=0;entryDx=0;entryDy=0;" edge="1" parent="1" source="JvaA8ZOsktSTNldXVIe7-13" target="JvaA8ZOsktSTNldXVIe7-15">
          <mxGeometry relative="1" as="geometry" />
        </mxCell>
        <mxCell id="JvaA8ZOsktSTNldXVIe7-13" value="Output&lt;div&gt;menu langganan streaming musik&lt;/div&gt;" style="shape=parallelogram;perimeter=parallelogramPerimeter;whiteSpace=wrap;html=1;fixedSize=1;" vertex="1" parent="1">
          <mxGeometry x="1616.25" y="470" width="137.5" height="60" as="geometry" />
        </mxCell>
        <mxCell id="JvaA8ZOsktSTNldXVIe7-14" value="" style="edgeStyle=orthogonalEdgeStyle;rounded=0;orthogonalLoop=1;jettySize=auto;html=1;" edge="1" parent="1" source="JvaA8ZOsktSTNldXVIe7-15" target="JvaA8ZOsktSTNldXVIe7-21">
          <mxGeometry relative="1" as="geometry" />
        </mxCell>
        <mxCell id="JvaA8ZOsktSTNldXVIe7-15" value="input&lt;div&gt;pilihan&lt;/div&gt;" style="shape=parallelogram;perimeter=parallelogramPerimeter;whiteSpace=wrap;html=1;fixedSize=1;" vertex="1" parent="1">
          <mxGeometry x="1625" y="570" width="120" height="60" as="geometry" />
        </mxCell>
        <mxCell id="JvaA8ZOsktSTNldXVIe7-16" value="" style="endArrow=classic;html=1;rounded=0;entryX=0;entryY=0;entryDx=0;entryDy=0;" edge="1" parent="1" target="JvaA8ZOsktSTNldXVIe7-15">
          <mxGeometry width="50" height="50" relative="1" as="geometry">
            <mxPoint x="1600" y="579" as="sourcePoint" />
            <mxPoint x="1738.75" y="700" as="targetPoint" />
          </mxGeometry>
        </mxCell>
        <mxCell id="JvaA8ZOsktSTNldXVIe7-17" value="" style="edgeStyle=orthogonalEdgeStyle;rounded=0;orthogonalLoop=1;jettySize=auto;html=1;" edge="1" parent="1" source="JvaA8ZOsktSTNldXVIe7-21" target="JvaA8ZOsktSTNldXVIe7-24">
          <mxGeometry relative="1" as="geometry" />
        </mxCell>
        <mxCell id="JvaA8ZOsktSTNldXVIe7-18" value="True" style="edgeLabel;html=1;align=center;verticalAlign=middle;resizable=0;points=[];" connectable="0" vertex="1" parent="JvaA8ZOsktSTNldXVIe7-17">
          <mxGeometry x="-0.1441" y="-1" relative="1" as="geometry">
            <mxPoint y="-1" as="offset" />
          </mxGeometry>
        </mxCell>
        <mxCell id="JvaA8ZOsktSTNldXVIe7-19" value="" style="edgeStyle=orthogonalEdgeStyle;rounded=0;orthogonalLoop=1;jettySize=auto;html=1;" edge="1" parent="1" source="JvaA8ZOsktSTNldXVIe7-21" target="JvaA8ZOsktSTNldXVIe7-30">
          <mxGeometry relative="1" as="geometry" />
        </mxCell>
        <mxCell id="JvaA8ZOsktSTNldXVIe7-20" value="False" style="edgeLabel;html=1;align=center;verticalAlign=middle;resizable=0;points=[];" connectable="0" vertex="1" parent="JvaA8ZOsktSTNldXVIe7-19">
          <mxGeometry x="-0.0821" y="1" relative="1" as="geometry">
            <mxPoint x="-1" as="offset" />
          </mxGeometry>
        </mxCell>
        <mxCell id="JvaA8ZOsktSTNldXVIe7-21" value="pilihan == 1" style="rhombus;whiteSpace=wrap;html=1;" vertex="1" parent="1">
          <mxGeometry x="1645" y="670" width="80" height="80" as="geometry" />
        </mxCell>
        <mxCell id="JvaA8ZOsktSTNldXVIe7-22" style="edgeStyle=orthogonalEdgeStyle;rounded=0;orthogonalLoop=1;jettySize=auto;html=1;exitX=1;exitY=1;exitDx=0;exitDy=0;" edge="1" parent="1" source="JvaA8ZOsktSTNldXVIe7-24">
          <mxGeometry relative="1" as="geometry">
            <mxPoint x="1770" y="841.8333333333335" as="targetPoint" />
          </mxGeometry>
        </mxCell>
        <mxCell id="JvaA8ZOsktSTNldXVIe7-68" style="edgeStyle=orthogonalEdgeStyle;rounded=0;orthogonalLoop=1;jettySize=auto;html=1;exitX=0.5;exitY=1;exitDx=0;exitDy=0;entryX=0;entryY=0.5;entryDx=0;entryDy=0;" edge="1" parent="1" source="JvaA8ZOsktSTNldXVIe7-24" target="JvaA8ZOsktSTNldXVIe7-13">
          <mxGeometry relative="1" as="geometry">
            <Array as="points">
              <mxPoint x="1685" y="910" />
              <mxPoint x="1490" y="910" />
              <mxPoint x="1490" y="500" />
            </Array>
          </mxGeometry>
        </mxCell>
        <mxCell id="JvaA8ZOsktSTNldXVIe7-24" value="Output&lt;div&gt;Harga &amp;amp; benefit&amp;nbsp;&lt;/div&gt;&lt;div&gt;paket bronze&lt;/div&gt;" style="shape=parallelogram;perimeter=parallelogramPerimeter;whiteSpace=wrap;html=1;fixedSize=1;" vertex="1" parent="1">
          <mxGeometry x="1625" y="790" width="120" height="60" as="geometry" />
        </mxCell>
        <mxCell id="JvaA8ZOsktSTNldXVIe7-25" value="End" style="ellipse;whiteSpace=wrap;html=1;" vertex="1" parent="1">
          <mxGeometry x="1625" y="1040" width="120" height="80" as="geometry" />
        </mxCell>
        <mxCell id="JvaA8ZOsktSTNldXVIe7-26" value="" style="edgeStyle=orthogonalEdgeStyle;rounded=0;orthogonalLoop=1;jettySize=auto;html=1;" edge="1" parent="1" source="JvaA8ZOsktSTNldXVIe7-30" target="JvaA8ZOsktSTNldXVIe7-33">
          <mxGeometry relative="1" as="geometry" />
        </mxCell>
        <mxCell id="JvaA8ZOsktSTNldXVIe7-27" value="True" style="edgeLabel;html=1;align=center;verticalAlign=middle;resizable=0;points=[];" connectable="0" vertex="1" parent="JvaA8ZOsktSTNldXVIe7-26">
          <mxGeometry x="-0.1429" y="-1" relative="1" as="geometry">
            <mxPoint as="offset" />
          </mxGeometry>
        </mxCell>
        <mxCell id="JvaA8ZOsktSTNldXVIe7-28" value="" style="edgeStyle=orthogonalEdgeStyle;rounded=0;orthogonalLoop=1;jettySize=auto;html=1;" edge="1" parent="1" source="JvaA8ZOsktSTNldXVIe7-30" target="JvaA8ZOsktSTNldXVIe7-38">
          <mxGeometry relative="1" as="geometry" />
        </mxCell>
        <mxCell id="JvaA8ZOsktSTNldXVIe7-29" value="False" style="edgeLabel;html=1;align=center;verticalAlign=middle;resizable=0;points=[];" connectable="0" vertex="1" parent="JvaA8ZOsktSTNldXVIe7-28">
          <mxGeometry x="0.0007" y="4" relative="1" as="geometry">
            <mxPoint as="offset" />
          </mxGeometry>
        </mxCell>
        <mxCell id="JvaA8ZOsktSTNldXVIe7-30" value="pilihan == 2" style="rhombus;whiteSpace=wrap;html=1;" vertex="1" parent="1">
          <mxGeometry x="1820" y="670" width="80" height="80" as="geometry" />
        </mxCell>
        <mxCell id="JvaA8ZOsktSTNldXVIe7-31" style="edgeStyle=orthogonalEdgeStyle;rounded=0;orthogonalLoop=1;jettySize=auto;html=1;exitX=1;exitY=1;exitDx=0;exitDy=0;" edge="1" parent="1" source="JvaA8ZOsktSTNldXVIe7-33">
          <mxGeometry relative="1" as="geometry">
            <mxPoint x="1940" y="841.4705882352941" as="targetPoint" />
          </mxGeometry>
        </mxCell>
        <mxCell id="JvaA8ZOsktSTNldXVIe7-69" style="edgeStyle=orthogonalEdgeStyle;rounded=0;orthogonalLoop=1;jettySize=auto;html=1;exitX=0.5;exitY=1;exitDx=0;exitDy=0;entryX=0;entryY=0.5;entryDx=0;entryDy=0;" edge="1" parent="1" source="JvaA8ZOsktSTNldXVIe7-33" target="JvaA8ZOsktSTNldXVIe7-13">
          <mxGeometry relative="1" as="geometry">
            <Array as="points">
              <mxPoint x="1860" y="910" />
              <mxPoint x="1490" y="910" />
              <mxPoint x="1490" y="500" />
            </Array>
          </mxGeometry>
        </mxCell>
        <mxCell id="JvaA8ZOsktSTNldXVIe7-33" value="Output&lt;div&gt;Harga &amp;amp; benefit&lt;/div&gt;&lt;div&gt;paket silver&lt;/div&gt;" style="shape=parallelogram;perimeter=parallelogramPerimeter;whiteSpace=wrap;html=1;fixedSize=1;" vertex="1" parent="1">
          <mxGeometry x="1800" y="790" width="120" height="60" as="geometry" />
        </mxCell>
        <mxCell id="JvaA8ZOsktSTNldXVIe7-34" value="" style="edgeStyle=orthogonalEdgeStyle;rounded=0;orthogonalLoop=1;jettySize=auto;html=1;" edge="1" parent="1" source="JvaA8ZOsktSTNldXVIe7-38" target="JvaA8ZOsktSTNldXVIe7-41">
          <mxGeometry relative="1" as="geometry" />
        </mxCell>
        <mxCell id="JvaA8ZOsktSTNldXVIe7-35" value="True" style="edgeLabel;html=1;align=center;verticalAlign=middle;resizable=0;points=[];" connectable="0" vertex="1" parent="JvaA8ZOsktSTNldXVIe7-34">
          <mxGeometry x="-0.1429" y="1" relative="1" as="geometry">
            <mxPoint as="offset" />
          </mxGeometry>
        </mxCell>
        <mxCell id="JvaA8ZOsktSTNldXVIe7-36" value="" style="edgeStyle=orthogonalEdgeStyle;rounded=0;orthogonalLoop=1;jettySize=auto;html=1;" edge="1" parent="1" source="JvaA8ZOsktSTNldXVIe7-38" target="JvaA8ZOsktSTNldXVIe7-46">
          <mxGeometry relative="1" as="geometry" />
        </mxCell>
        <mxCell id="JvaA8ZOsktSTNldXVIe7-37" value="False" style="edgeLabel;html=1;align=center;verticalAlign=middle;resizable=0;points=[];" connectable="0" vertex="1" parent="JvaA8ZOsktSTNldXVIe7-36">
          <mxGeometry x="-0.0604" y="6" relative="1" as="geometry">
            <mxPoint as="offset" />
          </mxGeometry>
        </mxCell>
        <mxCell id="JvaA8ZOsktSTNldXVIe7-38" value="pilihan == 3" style="rhombus;whiteSpace=wrap;html=1;" vertex="1" parent="1">
          <mxGeometry x="1980" y="670" width="80" height="80" as="geometry" />
        </mxCell>
        <mxCell id="JvaA8ZOsktSTNldXVIe7-39" style="edgeStyle=orthogonalEdgeStyle;rounded=0;orthogonalLoop=1;jettySize=auto;html=1;exitX=1;exitY=1;exitDx=0;exitDy=0;" edge="1" parent="1" source="JvaA8ZOsktSTNldXVIe7-41">
          <mxGeometry relative="1" as="geometry">
            <mxPoint x="2100" y="841.4705882352941" as="targetPoint" />
          </mxGeometry>
        </mxCell>
        <mxCell id="JvaA8ZOsktSTNldXVIe7-70" style="edgeStyle=orthogonalEdgeStyle;rounded=0;orthogonalLoop=1;jettySize=auto;html=1;exitX=0.5;exitY=1;exitDx=0;exitDy=0;entryX=0;entryY=0.5;entryDx=0;entryDy=0;" edge="1" parent="1" source="JvaA8ZOsktSTNldXVIe7-41" target="JvaA8ZOsktSTNldXVIe7-13">
          <mxGeometry relative="1" as="geometry">
            <Array as="points">
              <mxPoint x="2020" y="910" />
              <mxPoint x="1490" y="910" />
              <mxPoint x="1490" y="500" />
            </Array>
          </mxGeometry>
        </mxCell>
        <mxCell id="JvaA8ZOsktSTNldXVIe7-41" value="Output&lt;div&gt;harga &amp;amp; benefit&lt;/div&gt;&lt;div&gt;paket gold&lt;/div&gt;" style="shape=parallelogram;perimeter=parallelogramPerimeter;whiteSpace=wrap;html=1;fixedSize=1;" vertex="1" parent="1">
          <mxGeometry x="1960" y="790" width="120" height="60" as="geometry" />
        </mxCell>
        <mxCell id="JvaA8ZOsktSTNldXVIe7-42" value="" style="edgeStyle=orthogonalEdgeStyle;rounded=0;orthogonalLoop=1;jettySize=auto;html=1;" edge="1" parent="1" source="JvaA8ZOsktSTNldXVIe7-46" target="JvaA8ZOsktSTNldXVIe7-48">
          <mxGeometry relative="1" as="geometry" />
        </mxCell>
        <mxCell id="JvaA8ZOsktSTNldXVIe7-43" value="True" style="edgeLabel;html=1;align=center;verticalAlign=middle;resizable=0;points=[];" connectable="0" vertex="1" parent="JvaA8ZOsktSTNldXVIe7-42">
          <mxGeometry x="-0.0714" y="-1" relative="1" as="geometry">
            <mxPoint as="offset" />
          </mxGeometry>
        </mxCell>
        <mxCell id="JvaA8ZOsktSTNldXVIe7-44" value="" style="edgeStyle=orthogonalEdgeStyle;rounded=0;orthogonalLoop=1;jettySize=auto;html=1;" edge="1" parent="1" source="JvaA8ZOsktSTNldXVIe7-46" target="JvaA8ZOsktSTNldXVIe7-51">
          <mxGeometry relative="1" as="geometry" />
        </mxCell>
        <mxCell id="JvaA8ZOsktSTNldXVIe7-45" value="False" style="edgeLabel;html=1;align=center;verticalAlign=middle;resizable=0;points=[];" connectable="0" vertex="1" parent="JvaA8ZOsktSTNldXVIe7-44">
          <mxGeometry x="-0.028" y="1" relative="1" as="geometry">
            <mxPoint as="offset" />
          </mxGeometry>
        </mxCell>
        <mxCell id="JvaA8ZOsktSTNldXVIe7-46" value="pilihan == 4" style="rhombus;whiteSpace=wrap;html=1;" vertex="1" parent="1">
          <mxGeometry x="2155" y="670" width="80" height="80" as="geometry" />
        </mxCell>
        <mxCell id="JvaA8ZOsktSTNldXVIe7-47" style="edgeStyle=orthogonalEdgeStyle;rounded=0;orthogonalLoop=1;jettySize=auto;html=1;exitX=0.5;exitY=1;exitDx=0;exitDy=0;entryX=0.5;entryY=0;entryDx=0;entryDy=0;" edge="1" parent="1" source="JvaA8ZOsktSTNldXVIe7-48" target="JvaA8ZOsktSTNldXVIe7-25">
          <mxGeometry relative="1" as="geometry">
            <Array as="points">
              <mxPoint x="2195" y="980" />
              <mxPoint x="1685" y="980" />
            </Array>
          </mxGeometry>
        </mxCell>
        <mxCell id="JvaA8ZOsktSTNldXVIe7-67" style="edgeStyle=orthogonalEdgeStyle;rounded=0;orthogonalLoop=1;jettySize=auto;html=1;exitX=1;exitY=1;exitDx=0;exitDy=0;" edge="1" parent="1" source="JvaA8ZOsktSTNldXVIe7-48">
          <mxGeometry relative="1" as="geometry">
            <mxPoint x="2330" y="851.0769230769231" as="targetPoint" />
          </mxGeometry>
        </mxCell>
        <mxCell id="JvaA8ZOsktSTNldXVIe7-48" value="Output&amp;nbsp;&lt;div&gt;&quot;Terima kasih sudah menggunakan&amp;nbsp;&lt;/div&gt;&lt;div&gt;program kami&quot;&lt;/div&gt;" style="shape=parallelogram;perimeter=parallelogramPerimeter;whiteSpace=wrap;html=1;fixedSize=1;" vertex="1" parent="1">
          <mxGeometry x="2120" y="780" width="150" height="80" as="geometry" />
        </mxCell>
        <mxCell id="JvaA8ZOsktSTNldXVIe7-49" style="edgeStyle=orthogonalEdgeStyle;rounded=0;orthogonalLoop=1;jettySize=auto;html=1;exitX=1;exitY=1;exitDx=0;exitDy=0;" edge="1" parent="1" source="JvaA8ZOsktSTNldXVIe7-51">
          <mxGeometry relative="1" as="geometry">
            <mxPoint x="2470" y="732.0588235294117" as="targetPoint" />
          </mxGeometry>
        </mxCell>
        <mxCell id="JvaA8ZOsktSTNldXVIe7-71" style="edgeStyle=orthogonalEdgeStyle;rounded=0;orthogonalLoop=1;jettySize=auto;html=1;exitX=1;exitY=0.5;exitDx=0;exitDy=0;entryX=1;entryY=0.5;entryDx=0;entryDy=0;" edge="1" parent="1" source="JvaA8ZOsktSTNldXVIe7-51" target="JvaA8ZOsktSTNldXVIe7-13">
          <mxGeometry relative="1" as="geometry">
            <Array as="points">
              <mxPoint x="2450" y="710" />
              <mxPoint x="2450" y="500" />
            </Array>
          </mxGeometry>
        </mxCell>
        <mxCell id="JvaA8ZOsktSTNldXVIe7-51" value="Output&lt;div&gt;Pilihan tidak valid&lt;/div&gt;" style="shape=parallelogram;perimeter=parallelogramPerimeter;whiteSpace=wrap;html=1;fixedSize=1;" vertex="1" parent="1">
          <mxGeometry x="2300" y="680" width="130" height="60" as="geometry" />
        </mxCell>
        <mxCell id="JvaA8ZOsktSTNldXVIe7-52" style="edgeStyle=orthogonalEdgeStyle;rounded=0;orthogonalLoop=1;jettySize=auto;html=1;exitX=1;exitY=1;exitDx=0;exitDy=0;" edge="1" parent="1" source="JvaA8ZOsktSTNldXVIe7-54">
          <mxGeometry relative="1" as="geometry">
            <mxPoint x="1960" y="401.42857142857156" as="targetPoint" />
          </mxGeometry>
        </mxCell>
        <mxCell id="JvaA8ZOsktSTNldXVIe7-53" style="edgeStyle=orthogonalEdgeStyle;rounded=0;orthogonalLoop=1;jettySize=auto;html=1;entryX=0.5;entryY=0;entryDx=0;entryDy=0;exitX=1;exitY=0.5;exitDx=0;exitDy=0;" edge="1" parent="1" source="JvaA8ZOsktSTNldXVIe7-62" target="JvaA8ZOsktSTNldXVIe7-25">
          <mxGeometry relative="1" as="geometry">
            <Array as="points">
              <mxPoint x="2520" y="380" />
              <mxPoint x="2520" y="980" />
              <mxPoint x="1685" y="980" />
            </Array>
            <mxPoint x="2370" y="380" as="sourcePoint" />
          </mxGeometry>
        </mxCell>
        <mxCell id="JvaA8ZOsktSTNldXVIe7-66" value="False" style="edgeLabel;html=1;align=center;verticalAlign=middle;resizable=0;points=[];" connectable="0" vertex="1" parent="JvaA8ZOsktSTNldXVIe7-53">
          <mxGeometry x="-0.8867" y="-3" relative="1" as="geometry">
            <mxPoint x="1" as="offset" />
          </mxGeometry>
        </mxCell>
        <mxCell id="JvaA8ZOsktSTNldXVIe7-57" value="" style="edgeStyle=orthogonalEdgeStyle;rounded=0;orthogonalLoop=1;jettySize=auto;html=1;entryX=0;entryY=0.5;entryDx=0;entryDy=0;" edge="1" parent="1" source="JvaA8ZOsktSTNldXVIe7-54" target="JvaA8ZOsktSTNldXVIe7-61">
          <mxGeometry relative="1" as="geometry">
            <mxPoint x="2000" y="380" as="targetPoint" />
          </mxGeometry>
        </mxCell>
        <mxCell id="JvaA8ZOsktSTNldXVIe7-54" value="Output&lt;div&gt;nama/nim&amp;nbsp;&lt;/div&gt;&lt;div&gt;tidak sesuai&lt;/div&gt;" style="shape=parallelogram;perimeter=parallelogramPerimeter;whiteSpace=wrap;html=1;fixedSize=1;" vertex="1" parent="1">
          <mxGeometry x="1810" y="350" width="120" height="60" as="geometry" />
        </mxCell>
        <mxCell id="JvaA8ZOsktSTNldXVIe7-60" style="edgeStyle=orthogonalEdgeStyle;rounded=0;orthogonalLoop=1;jettySize=auto;html=1;exitX=0.5;exitY=1;exitDx=0;exitDy=0;entryX=0.5;entryY=0;entryDx=0;entryDy=0;" edge="1" parent="1" source="JvaA8ZOsktSTNldXVIe7-58" target="JvaA8ZOsktSTNldXVIe7-4">
          <mxGeometry relative="1" as="geometry" />
        </mxCell>
        <mxCell id="JvaA8ZOsktSTNldXVIe7-58" value="percobaanLogin = 0" style="whiteSpace=wrap;html=1;" vertex="1" parent="1">
          <mxGeometry x="1625" y="120" width="120" height="60" as="geometry" />
        </mxCell>
        <mxCell id="JvaA8ZOsktSTNldXVIe7-63" value="" style="edgeStyle=orthogonalEdgeStyle;rounded=0;orthogonalLoop=1;jettySize=auto;html=1;" edge="1" parent="1" source="JvaA8ZOsktSTNldXVIe7-61" target="JvaA8ZOsktSTNldXVIe7-62">
          <mxGeometry relative="1" as="geometry" />
        </mxCell>
        <mxCell id="JvaA8ZOsktSTNldXVIe7-61" value="percobaanLogin += 1" style="whiteSpace=wrap;html=1;" vertex="1" parent="1">
          <mxGeometry x="2000" y="350" width="120" height="60" as="geometry" />
        </mxCell>
        <mxCell id="JvaA8ZOsktSTNldXVIe7-64" style="edgeStyle=orthogonalEdgeStyle;rounded=0;orthogonalLoop=1;jettySize=auto;html=1;exitX=0.5;exitY=0;exitDx=0;exitDy=0;entryX=1;entryY=0.5;entryDx=0;entryDy=0;" edge="1" parent="1" source="JvaA8ZOsktSTNldXVIe7-62" target="JvaA8ZOsktSTNldXVIe7-4">
          <mxGeometry relative="1" as="geometry">
            <Array as="points">
              <mxPoint x="2260" y="260" />
            </Array>
          </mxGeometry>
        </mxCell>
        <mxCell id="JvaA8ZOsktSTNldXVIe7-65" value="True" style="edgeLabel;html=1;align=center;verticalAlign=middle;resizable=0;points=[];" connectable="0" vertex="1" parent="JvaA8ZOsktSTNldXVIe7-64">
          <mxGeometry x="-0.8783" relative="1" as="geometry">
            <mxPoint y="-1" as="offset" />
          </mxGeometry>
        </mxCell>
        <mxCell id="JvaA8ZOsktSTNldXVIe7-62" value="percobaanLogin &amp;lt; 3" style="rhombus;whiteSpace=wrap;html=1;" vertex="1" parent="1">
          <mxGeometry x="2190" y="315" width="140" height="130" as="geometry" />
        </mxCell>
        <mxCell id="JvaA8ZOsktSTNldXVIe7-73" value="&lt;font style=&quot;font-size: 40px;&quot;&gt;Percabangan&lt;/font&gt;" style="rounded=1;whiteSpace=wrap;html=1;fillColor=#dae8fc;strokeColor=#6c8ebf;" vertex="1" parent="1">
          <mxGeometry x="600" y="50" width="260" height="70" as="geometry" />
        </mxCell>
        <mxCell id="JvaA8ZOsktSTNldXVIe7-74" value="&lt;font style=&quot;font-size: 40px;&quot;&gt;Perulangan&lt;/font&gt;" style="rounded=1;whiteSpace=wrap;html=1;fillColor=#f8cecc;strokeColor=#b85450;" vertex="1" parent="1">
          <mxGeometry x="1865" y="70" width="260" height="70" as="geometry" />
        </mxCell>
      </root>
    </mxGraphModel>
  </diagram>
</mxfile>
